<svg xmlns="http://www.w3.org/2000/svg" viewBox="0 0 300 300"><path d="M78 224.8l-17.5-109 86.2-69.6 103 39.6 17 109.4-85.8 69.2z" fill="#ffa539"/><path d="M50.6 214.3L33 105.3l86.4-69.7 103 39.6 17 109.4-86 69.3z" fill="#ffa539"/><path d="M183.6 265.5c11.8 4.5 25-1.5 29.6-13l52.4-136c4.5-11.8-1.3-25-13.2-29.7l-136-52.3c-11.8-4.5-25 1.2-29.7 13.2L34.4 183.5c-4.5 11.7 1.3 25 13.2 29.6l136 52.6zM215 147.2c1.6 36-26.3 66.3-62.2 67.8-36 1.6-66.4-26.3-68-62.3-1.4-36 26.5-66.3 62.4-68 36-1.4 66.4 26.5 68 62.5z" fill="#f3804b"/></svg>